<mxfile host="65bd71144e">
    <diagram id="GD7dDlsoUSwEv1bShZWI" name="Page-1">
        <mxGraphModel dx="1171" dy="656" grid="1" gridSize="10" guides="1" tooltips="1" connect="1" arrows="1" fold="1" page="1" pageScale="1" pageWidth="827" pageHeight="1169" math="0" shadow="0">
            <root>
                <mxCell id="0"/>
                <mxCell id="1" parent="0"/>
                <mxCell id="ajEhvg152iug_HyU1qCX-1" value="User writes in main search bar" style="rounded=1;whiteSpace=wrap;html=1;" parent="1" vertex="1">
                    <mxGeometry x="70" y="40" width="120" height="60" as="geometry"/>
                </mxCell>
                <mxCell id="ajEhvg152iug_HyU1qCX-3" value="Filter(s) exist(s)" style="rhombus;whiteSpace=wrap;html=1;" parent="1" vertex="1">
                    <mxGeometry x="90" y="120" width="80" height="80" as="geometry"/>
                </mxCell>
                <mxCell id="ajEhvg152iug_HyU1qCX-4" value="" style="endArrow=classic;html=1;exitX=0.5;exitY=1;exitDx=0;exitDy=0;entryX=0.5;entryY=0;entryDx=0;entryDy=0;" parent="1" source="ajEhvg152iug_HyU1qCX-1" target="ajEhvg152iug_HyU1qCX-3" edge="1">
                    <mxGeometry width="50" height="50" relative="1" as="geometry">
                        <mxPoint x="280" y="300" as="sourcePoint"/>
                        <mxPoint x="330" y="250" as="targetPoint"/>
                    </mxGeometry>
                </mxCell>
                <mxCell id="ajEhvg152iug_HyU1qCX-5" value="" style="endArrow=classic;html=1;exitX=0.5;exitY=1;exitDx=0;exitDy=0;entryX=0.5;entryY=0;entryDx=0;entryDy=0;" parent="1" source="ajEhvg152iug_HyU1qCX-3" edge="1" target="ajEhvg152iug_HyU1qCX-9">
                    <mxGeometry width="50" height="50" relative="1" as="geometry">
                        <mxPoint x="280" y="250" as="sourcePoint"/>
                        <mxPoint x="130" y="260" as="targetPoint"/>
                    </mxGeometry>
                </mxCell>
                <mxCell id="ajEhvg152iug_HyU1qCX-6" value="No" style="text;html=1;strokeColor=none;fillColor=none;align=center;verticalAlign=middle;whiteSpace=wrap;rounded=0;" parent="1" vertex="1">
                    <mxGeometry x="148" y="200" width="40" height="20" as="geometry"/>
                </mxCell>
                <mxCell id="ajEhvg152iug_HyU1qCX-7" value="" style="endArrow=classic;html=1;exitX=1;exitY=0.5;exitDx=0;exitDy=0;" parent="1" source="ajEhvg152iug_HyU1qCX-3" edge="1">
                    <mxGeometry width="50" height="50" relative="1" as="geometry">
                        <mxPoint x="280" y="250" as="sourcePoint"/>
                        <mxPoint x="290" y="160" as="targetPoint"/>
                    </mxGeometry>
                </mxCell>
                <mxCell id="ajEhvg152iug_HyU1qCX-8" value="Yes" style="text;html=1;strokeColor=none;fillColor=none;align=center;verticalAlign=middle;whiteSpace=wrap;rounded=0;" parent="1" vertex="1">
                    <mxGeometry x="190" y="130" width="40" height="20" as="geometry"/>
                </mxCell>
                <mxCell id="ajEhvg152iug_HyU1qCX-9" value="System compares the user input with the recipe titles contained in the recipe table" style="rounded=1;whiteSpace=wrap;html=1;" parent="1" vertex="1">
                    <mxGeometry x="67" y="230" width="140" height="80" as="geometry"/>
                </mxCell>
                <mxCell id="ajEhvg152iug_HyU1qCX-10" value="" style="endArrow=classic;html=1;exitX=0.443;exitY=0.988;exitDx=0;exitDy=0;exitPerimeter=0;" parent="1" source="ajEhvg152iug_HyU1qCX-9" edge="1">
                    <mxGeometry width="50" height="50" relative="1" as="geometry">
                        <mxPoint x="370" y="350" as="sourcePoint"/>
                        <mxPoint x="130" y="340" as="targetPoint"/>
                        <Array as="points"/>
                    </mxGeometry>
                </mxCell>
                <mxCell id="ajEhvg152iug_HyU1qCX-12" value="System also compares with utensils" style="rounded=1;whiteSpace=wrap;html=1;" parent="1" vertex="1">
                    <mxGeometry x="68" y="440" width="120" height="60" as="geometry"/>
                </mxCell>
                <mxCell id="ajEhvg152iug_HyU1qCX-15" value="" style="endArrow=classic;html=1;exitX=0.425;exitY=1.029;exitDx=0;exitDy=0;exitPerimeter=0;" parent="1" source="ajEhvg152iug_HyU1qCX-19" edge="1">
                    <mxGeometry width="50" height="50" relative="1" as="geometry">
                        <mxPoint x="120" y="500" as="sourcePoint"/>
                        <mxPoint x="129" y="440" as="targetPoint"/>
                    </mxGeometry>
                </mxCell>
                <mxCell id="ajEhvg152iug_HyU1qCX-16" value="System also compares with appliances" style="rounded=1;whiteSpace=wrap;html=1;" parent="1" vertex="1">
                    <mxGeometry x="67" y="630" width="120" height="60" as="geometry"/>
                </mxCell>
                <mxCell id="ajEhvg152iug_HyU1qCX-19" value="Recipe is add in the 2nd array" style="rounded=1;whiteSpace=wrap;html=1;" parent="1" vertex="1">
                    <mxGeometry x="76" y="340" width="120" height="70" as="geometry"/>
                </mxCell>
                <mxCell id="ajEhvg152iug_HyU1qCX-20" value="" style="endArrow=classic;html=1;entryX=0;entryY=0.5;entryDx=0;entryDy=0;" parent="1" edge="1" target="ajEhvg152iug_HyU1qCX-21">
                    <mxGeometry width="50" height="50" relative="1" as="geometry">
                        <mxPoint x="195" y="760" as="sourcePoint"/>
                        <mxPoint x="559" y="427" as="targetPoint"/>
                    </mxGeometry>
                </mxCell>
                <mxCell id="ajEhvg152iug_HyU1qCX-21" value="2nd array replace first array of recipes" style="rounded=1;whiteSpace=wrap;html=1;" parent="1" vertex="1">
                    <mxGeometry x="250" y="710" width="140" height="80" as="geometry"/>
                </mxCell>
                <mxCell id="ajEhvg152iug_HyU1qCX-23" value="All filters tag are saved in an array of tag" style="rounded=1;whiteSpace=wrap;html=1;" parent="1" vertex="1">
                    <mxGeometry x="293" y="130" width="120" height="60" as="geometry"/>
                </mxCell>
                <mxCell id="ajEhvg152iug_HyU1qCX-27" value="" style="endArrow=classic;html=1;exitX=0.5;exitY=1;exitDx=0;exitDy=0;" parent="1" source="ajEhvg152iug_HyU1qCX-12" edge="1">
                    <mxGeometry width="50" height="50" relative="1" as="geometry">
                        <mxPoint x="326.79999999999995" y="739.02" as="sourcePoint"/>
                        <mxPoint x="128" y="530" as="targetPoint"/>
                    </mxGeometry>
                </mxCell>
                <mxCell id="ajEhvg152iug_HyU1qCX-28" value="Recipe table is filtered according to the filters tags" style="rounded=1;whiteSpace=wrap;html=1;" parent="1" vertex="1">
                    <mxGeometry x="480" y="130" width="120" height="60" as="geometry"/>
                </mxCell>
                <mxCell id="ajEhvg152iug_HyU1qCX-29" value="" style="endArrow=classic;html=1;entryX=0;entryY=0.5;entryDx=0;entryDy=0;exitX=1;exitY=0.5;exitDx=0;exitDy=0;" parent="1" source="ajEhvg152iug_HyU1qCX-23" target="ajEhvg152iug_HyU1qCX-28" edge="1">
                    <mxGeometry width="50" height="50" relative="1" as="geometry">
                        <mxPoint x="370" y="260" as="sourcePoint"/>
                        <mxPoint x="420" y="210" as="targetPoint"/>
                    </mxGeometry>
                </mxCell>
                <mxCell id="ajEhvg152iug_HyU1qCX-30" value="" style="endArrow=classic;html=1;entryX=1;entryY=0;entryDx=0;entryDy=0;exitX=0.5;exitY=1;exitDx=0;exitDy=0;" parent="1" source="ajEhvg152iug_HyU1qCX-28" target="ajEhvg152iug_HyU1qCX-9" edge="1">
                    <mxGeometry width="50" height="50" relative="1" as="geometry">
                        <mxPoint x="370" y="260" as="sourcePoint"/>
                        <mxPoint x="420" y="210" as="targetPoint"/>
                    </mxGeometry>
                </mxCell>
                <mxCell id="2" value="Recipe is add in the 2nd array" style="rounded=1;whiteSpace=wrap;html=1;" vertex="1" parent="1">
                    <mxGeometry x="67" y="530" width="120" height="70" as="geometry"/>
                </mxCell>
                <mxCell id="4" value="" style="endArrow=classic;html=1;exitX=0.5;exitY=1;exitDx=0;exitDy=0;entryX=0.5;entryY=0;entryDx=0;entryDy=0;" edge="1" parent="1" source="2" target="ajEhvg152iug_HyU1qCX-16">
                    <mxGeometry width="50" height="50" relative="1" as="geometry">
                        <mxPoint x="138" y="510" as="sourcePoint"/>
                        <mxPoint x="138" y="540" as="targetPoint"/>
                    </mxGeometry>
                </mxCell>
                <mxCell id="5" value="System also compares with utensils" style="rounded=1;whiteSpace=wrap;html=1;" vertex="1" parent="1">
                    <mxGeometry x="70" y="734" width="120" height="60" as="geometry"/>
                </mxCell>
                <mxCell id="6" value="" style="endArrow=classic;html=1;exitX=0.5;exitY=1;exitDx=0;exitDy=0;entryX=0.5;entryY=0;entryDx=0;entryDy=0;" edge="1" parent="1" source="ajEhvg152iug_HyU1qCX-16" target="5">
                    <mxGeometry width="50" height="50" relative="1" as="geometry">
                        <mxPoint x="137" y="610" as="sourcePoint"/>
                        <mxPoint x="137" y="640" as="targetPoint"/>
                    </mxGeometry>
                </mxCell>
            </root>
        </mxGraphModel>
    </diagram>
</mxfile>